<svg width="512" height="512" viewBox="0 0 512 512" fill="none" xmlns="http://www.w3.org/2000/svg">
    <path fill-rule="evenodd" clip-rule="evenodd"
        d="M0 495.984H418.158V432.458H63.564V77.7962H418.24V310.554H387.91L449.95 372.602L512 310.554H481.76V14.2222H0V495.984ZM161.286 116.964C169.47 115.65 178.918 114.654 189.646 113.884C200.41 113.114 213.812 112.736 229.902 112.736C243.944 112.736 257.256 113.884 269.752 116.196C282.292 118.476 293.204 122.372 302.512 127.868C311.822 133.378 319.184 140.688 324.552 149.914C329.912 159.096 332.592 170.588 332.592 184.404C332.592 192.572 331.408 200.168 328.946 207.204C326.546 214.196 323.276 220.344 319.186 225.612C315.09 230.836 310.508 235.156 305.374 238.6C300.278 242.056 295.054 244.186 289.692 244.912C295.558 245.696 302.052 247.508 309.232 250.332C316.368 253.098 323.002 257.278 329.134 262.774C335.274 268.27 340.408 275.368 344.492 284.034C348.584 292.718 350.628 303.168 350.628 315.446C350.628 332.07 347.496 345.662 341.222 356.276C334.956 366.876 326.544 375.226 315.906 381.374C305.322 387.502 293.052 391.716 279.152 393.996C265.206 396.308 250.572 397.456 235.264 397.456C223.492 397.456 211.91 397.136 200.41 396.504C188.874 395.87 175.874 394.632 161.286 392.864V116.964V116.964ZM216.864 350.704V270.988H239.854C247.802 270.988 254.984 271.638 261.522 272.908C268.022 274.174 273.662 276.412 278.382 279.642C283.108 282.812 286.74 287.042 289.292 292.266C291.836 297.49 293.152 304.074 293.152 311.986C293.152 320.428 291.466 327.254 288.152 332.524C284.838 337.748 280.608 341.84 275.52 344.8C270.403 347.705 264.822 349.702 259.024 350.704C253.164 351.746 247.532 352.244 242.164 352.244C238.304 352.244 234.04 352.11 229.314 351.88C224.58 351.612 220.45 351.234 216.864 350.704V350.704ZM233.716 228.828H216.864V155.276C221.724 154.504 227.72 154.128 234.894 154.128C239.99 154.128 245.168 154.55 250.394 155.456C255.618 156.362 260.344 158.144 264.574 160.816C268.794 163.504 272.242 167.22 274.932 171.946C277.614 176.672 278.926 182.712 278.926 190.126C278.926 197.798 277.794 204.126 275.52 209.124C273.202 214.106 270.022 218.062 265.932 220.976C261.848 223.92 257.022 225.976 251.526 227.108C246.076 228.286 240.126 228.828 233.716 228.828Z"
        fill="#40D1F6" />
</svg>
    